# xmcd CD database file
#
# Track frame offsets:
#	150
#	2027
#	16697
#	34847
#	36597
#	50465
#	52117
#	62735
#	92105
#	94455
#	107357
#	109102
#	128802
#	132545
#	144902
#
# Disc length: 2091 seconds
#
# Revision: 2
# Processed by: cddbd v1.4PL0 Copyright (c) Steve Scherf et al.
# Submitted via: CDex 1.51
#
DISCID=ce08290f
DTITLE=Bayou Brass - A Bayou Brass Christmas
DYEAR=1999
DGENRE=Jazz
TTITLE0=Intro: Chuy, Duane
TTITLE1=Funky Frosty
TTITLE2=Little Drummer Sonny Boy
TTITLE3=Bayou Brass
TTITLE4=Silent Night Live
TTITLE5=Bayou Brass
TTITLE6=Rude-Off
TTITLE7=Good King Wenceslas - Nothing Personal
TTITLE8=Bayou Brass Rap
TTITLE9=Santa Claus Is Comin' To Town
TTITLE10=Bayou Brass
TTITLE11=We Three Kings
TTITLE12=Bayou Brass
TTITLE13=Christmas Song
TTITLE14=Winter Wonderland
EXTD=YEAR: 1999
EXTT0=
EXTT1=
EXTT2=
EXTT3=
EXTT4=
EXTT5=
EXTT6=
EXTT7=
EXTT8=
EXTT9=
EXTT10=
EXTT11=
EXTT12=
EXTT13=
EXTT14=
PLAYORDER=
